<svg xmlns="http://www.w3.org/2000/svg" viewBox="0 0 13.46 15.61"><defs><style>.cls-1{fill:#231f20;}</style></defs><g id="Layer_2" data-name="Layer 2"><g id="Layer_1-2" data-name="Layer 1"><path class="cls-1" d="M2.58,1.9A2.68,2.68,0,0,0,0,0V.75A1.94,1.94,0,0,1,1.91,2.34c.07.38.14.83.21,1.28h0c0,.19.55,4.75.87,6.53a2.28,2.28,0,0,0,2.19,1.71h5.23v-.75H5.2S3.92,11,3.73,10c-.07-.41-.16-1-.25-1.61a2.74,2.74,0,0,0,1.67.48h5.17A2.2,2.2,0,0,0,12.8,7s.2-1.39.61-4.75l.05-.42ZM12.06,7c0,.12-.16,1.17-1.74,1.17H5.15c-1.59,0-1.73-1.05-1.74-1.2,0,0-.39-2.49-.69-4.28l9.89,0C12.24,5.66,12.06,6.94,12.06,7Z"/><path class="cls-1" d="M4.62,13.47a1.07,1.07,0,1,0,1.07,1.07A1.07,1.07,0,0,0,4.62,13.47Z"/><path class="cls-1" d="M9.34,13.47a1.07,1.07,0,1,0,1.07,1.07A1.07,1.07,0,0,0,9.34,13.47Z"/></g></g></svg>