<svg xmlns="http://www.w3.org/2000/svg" viewBox="0 0 676.12 127.96"><defs><style>.cls-1{fill:#231f20;}</style></defs><g id="Layer_2" data-name="Layer 2"><g id="Layer_1-2" data-name="Layer 1"><path class="cls-1" d="M534.91,22.79a10.5,10.5,0,0,0,6.35,2,8.9,8.9,0,0,0,6.21-2.39q1.59-1.45,1.59-2.43a.92.92,0,0,0-.07-.38.68.68,0,0,0-.64-.42q-.48,0-1.14.75a6.14,6.14,0,0,1-4.52,2.37,4.65,4.65,0,0,1-3.31-1.32,6.85,6.85,0,0,1-1.82-5.19,6.69,6.69,0,0,1,1.15-4.15,3.06,3.06,0,0,1,2.51-1.33,3,3,0,0,1,2.24,1.07,6.47,6.47,0,0,1,1.24,2.34,11.54,11.54,0,0,0,.4,1.15.71.71,0,0,0,.63.49c.3,0,.56-.24.78-.7l1.58-3.28a1.8,1.8,0,0,0,.2-.7c0-.35-.37-.71-1.13-1.08a12.09,12.09,0,0,0-5.48-1.24,10.3,10.3,0,0,0-6.2,1.9,7.83,7.83,0,0,0-3.42,6.67,6.84,6.84,0,0,0,2.85,5.91"/><path class="cls-1" d="M551.31,20.07a3.58,3.58,0,0,1-.4,1.71,2.47,2.47,0,0,1-.82.54q-.87.43-.87,1.08c0,.74.56,1.1,1.69,1.1h5.72c1.15,0,1.72-.36,1.72-1.1,0-.43-.29-.79-.88-1.08a4.53,4.53,0,0,1-.64-.33,1.41,1.41,0,0,1-.44-.77,19.86,19.86,0,0,1-.23-4.12V2.44c0-1.1-.24-1.65-.73-1.65a1.43,1.43,0,0,0-.68.2l-4.28,2.38a7.3,7.3,0,0,0-.78.49,1,1,0,0,0-.42.82.85.85,0,0,0,.61.84c.26.09.5.18.73.28a.93.93,0,0,1,.51.43A8.49,8.49,0,0,1,551.38,9V17.1c0,1.28,0,2.27-.07,3"/><path class="cls-1" d="M564.51,11.38a2.29,2.29,0,0,1,1.91-1,4.25,4.25,0,0,1,2.84,1.38,10.52,10.52,0,0,1,2.48,3.54,10.17,10.17,0,0,1,.91,3.95,3.26,3.26,0,0,1-.56,1.88,2.56,2.56,0,0,1-2.25,1.1,3.66,3.66,0,0,1-2.34-.9,9.69,9.69,0,0,1-2.81-3.93,9.57,9.57,0,0,1-.82-3.72,3.89,3.89,0,0,1,.64-2.32m-3,11.2a9.56,9.56,0,0,0,6.68,2.17,11.45,11.45,0,0,0,7-2.05,6.25,6.25,0,0,0,2-2.33,6.77,6.77,0,0,0,.7-3.06,8.18,8.18,0,0,0-.57-3A8.92,8.92,0,0,0,574.93,11a10,10,0,0,0-3.2-2A10.12,10.12,0,0,0,568,8.31a9.28,9.28,0,0,0-6.25,2.25,7.64,7.64,0,0,0-2.69,6.11,8.82,8.82,0,0,0,.63,3.34,7,7,0,0,0,1.73,2.57"/><path class="cls-1" d="M578.62,11.43h.77a4.41,4.41,0,0,1,.73,0c.29,0,.46.27.51.68a38.9,38.9,0,0,1,.16,4,30.5,30.5,0,0,1-.28,4.08,10.45,10.45,0,0,0-.11,1.29,2.62,2.62,0,0,0,1.31,2,5.94,5.94,0,0,0,3.68,1.1,7.76,7.76,0,0,0,4.5-1.27c1-.67,1.45-1.29,1.45-1.87a.88.88,0,0,0-.28-.67,1,1,0,0,0-.71-.27,2.27,2.27,0,0,0-1.08.45,3.77,3.77,0,0,1-2.06.73,1.45,1.45,0,0,1-1.47-1.2,31.85,31.85,0,0,1-.19-4.43V12.84a6.59,6.59,0,0,1,.11-1.37c.08-.1.44-.14,1.09-.14l2,0h1.22a.57.57,0,0,0,.4-.1,1.43,1.43,0,0,0,.28-.56,5.08,5.08,0,0,0,.32-1.47c0-.28-.11-.45-.34-.5a6.59,6.59,0,0,0-1,0h-2.75a3.29,3.29,0,0,1-1.17-.1c-.16-.13-.25-.54-.25-1.24V3.81c0-.75-.23-1.12-.7-1.12a1.26,1.26,0,0,0-1,.66c-.26.32-.79,1-1.58,2l-2.07,2.44c-.15.16-.69.7-1.62,1.6a1.79,1.79,0,0,0-.69,1.19.73.73,0,0,0,.84.82"/><path class="cls-1" d="M593.42,24.5h5.72c1.13,0,1.69-.36,1.69-1.1q0-.64-.87-1.08a5.66,5.66,0,0,1-.63-.33,1.55,1.55,0,0,1-.45-.77,21.74,21.74,0,0,1-.21-4.12V15.48a4.64,4.64,0,0,1,.59-2.58,1.84,1.84,0,0,1,1.59-.89,1.55,1.55,0,0,1,1.22.52,7.92,7.92,0,0,1,1,2.48c.35,1.17.66,2.39.93,3.65a14,14,0,0,1,.41,2.6,1.34,1.34,0,0,1-.83,1.13q-.93.51-.93,1.14c0,.65.53,1,1.61,1h6.37c.76,0,1.15-.32,1.15-1a1,1,0,0,0-.51-.89,5.08,5.08,0,0,1-.78-.45,2.46,2.46,0,0,1-.87-1.08,14.24,14.24,0,0,1-.72-2.48,45.55,45.55,0,0,0-2.25-7.47,4.12,4.12,0,0,0-3.9-2.62,4.28,4.28,0,0,0-2.37.72,14.4,14.4,0,0,0-1.76,1.43V2c0-1-.24-1.45-.73-1.45a1.82,1.82,0,0,0-.84.33l-4.4,2.78a1.21,1.21,0,0,0-.71,1c0,.41.27.72.83.9a1.3,1.3,0,0,1,1,1,14.3,14.3,0,0,1,.11,2.32v8.2c0,1.28,0,2.27-.07,3a3.71,3.71,0,0,1-.4,1.71,2.43,2.43,0,0,1-.83.54q-.87.43-.87,1.08c0,.74.57,1.1,1.7,1.1"/><path class="cls-1" d="M616.8,11.52a2.35,2.35,0,0,1,1.84-.84,2.93,2.93,0,0,1,2.44,1.38,6.4,6.4,0,0,1,.7,1.2,3,3,0,0,1,.3,1c0,.25-.33.51-1,.8l-3.28,1.49a1.87,1.87,0,0,1-.67.19c-.19,0-.4-.25-.61-.75a6.31,6.31,0,0,1-.4-2.31,3.14,3.14,0,0,1,.66-2.16M620,24.77a12.44,12.44,0,0,0,7.28-2.41c1.12-.86,1.68-1.65,1.68-2.36a.93.93,0,0,0-.11-.44.72.72,0,0,0-.64-.4c-.28,0-.65.24-1.1.7a6.7,6.7,0,0,1-4.56,2,4.83,4.83,0,0,1-3.63-1.52,5.84,5.84,0,0,1-1.08-1.71l7.71-3.42.82-.4c.63-.3,1-.49,1.15-.57s.21-.18.21-.3a2,2,0,0,0-.22-.7,8.3,8.3,0,0,0-1.27-2A7.71,7.71,0,0,0,620,8.36a8.62,8.62,0,0,0-6,2.36,7.78,7.78,0,0,0-2.62,6,7.69,7.69,0,0,0,2.6,6,8.61,8.61,0,0,0,6,2.08"/><path class="cls-1" d="M632,24.47q.43,1,1,1a1.22,1.22,0,0,0,.92-.63,1.14,1.14,0,0,1,.82-.54,12.88,12.88,0,0,1,1.35.24,19.62,19.62,0,0,0,4.53.67,5.88,5.88,0,0,0,4-1.43,4.6,4.6,0,0,0,1.63-3.58,4.77,4.77,0,0,0-.7-2.53A5.87,5.87,0,0,0,643,15.55c-.71-.32-2-.81-3.77-1.46a17.28,17.28,0,0,1-2.77-1.16,1.26,1.26,0,0,1-.69-1.08q0-1.11,1.65-1.11a8.64,8.64,0,0,1,3.83,1,16.78,16.78,0,0,1,2.83,1.93,1.4,1.4,0,0,0,.78.39c.44,0,.65-.18.65-.55a1.82,1.82,0,0,0-.28-.76l-2-3.74c-.28-.52-.57-.78-.89-.78s-.46.18-.87.54a1.31,1.31,0,0,1-.87.42,1.9,1.9,0,0,1-.54-.11,17.63,17.63,0,0,0-4.52-.8,5.22,5.22,0,0,0-3.46,1.06,4.12,4.12,0,0,0-1.53,3.32,4.39,4.39,0,0,0,2.23,3.73,24.92,24.92,0,0,0,3,1.4l3.84,1.6c.81.4,1.22.86,1.22,1.38a1.22,1.22,0,0,1-.64,1.09,3.39,3.39,0,0,1-1.75.43,9,9,0,0,1-2.27-.33,10,10,0,0,1-2.21-.84,10,10,0,0,1-1.39-.94A12.18,12.18,0,0,1,631.23,19c-.44-.45-.79-.68-1.06-.68s-.61.19-.61.56a2.09,2.09,0,0,0,.24.84Z"/><path class="cls-1" d="M532.17,43.17c.08,0,.4,0,1,.07l.89,0c0,.15,0,.45.05.89,0,.07,0,.43,0,1.07,0,.34,0,.69,0,1v2.37c0,1.27,0,2.26-.07,3a3.78,3.78,0,0,1-.4,1.71,2.47,2.47,0,0,1-.82.54c-.59.29-.88.65-.88,1.08,0,.73.57,1.1,1.7,1.1h5.82c1.11,0,1.66-.34,1.66-1a1.22,1.22,0,0,0-.85-1.15,4.23,4.23,0,0,1-.63-.33,1.51,1.51,0,0,1-.45-.77,18.78,18.78,0,0,1-.25-4.12V43.39l.33,0c.61,0,1.14-.06,1.61-.07a.88.88,0,0,0,.52-.14,1.89,1.89,0,0,0,.25-.38,4.27,4.27,0,0,0,.35-1.75c0-.35-.2-.52-.6-.52h-.36l-.35,0H539a6.52,6.52,0,0,0-2-2.8c-.84-.8-1.26-1.41-1.26-1.81a1.24,1.24,0,0,1,.38-.88,1.22,1.22,0,0,1,.88-.35,1.31,1.31,0,0,1,.71.2.68.68,0,0,1,.35.61c0,.32-.26.59-.78.78a1.85,1.85,0,0,0,.5.65,3.15,3.15,0,0,0,2.11.76,2.63,2.63,0,0,0,1.59-.48,2.43,2.43,0,0,0,1.07-2,2.69,2.69,0,0,0-1.4-2.32,6.18,6.18,0,0,0-3.47-1A6.58,6.58,0,0,0,533.81,33a3.75,3.75,0,0,0-1.75,3.26,4.54,4.54,0,0,0,1,2.69c.56.75.92,1.26,1.1,1.56h-1.45a3.33,3.33,0,0,0-.79,0c-.2,0-.31.23-.31.5a11.6,11.6,0,0,0,.12,1.31c.06.49.2.75.44.79"/><path class="cls-1" d="M556.12,50.79a3.24,3.24,0,0,1-.56,1.89,2.57,2.57,0,0,1-2.25,1.1,3.72,3.72,0,0,1-2.34-.91,10.78,10.78,0,0,1-3.63-7.65A3.84,3.84,0,0,1,548,42.9a2.29,2.29,0,0,1,1.9-1,4.27,4.27,0,0,1,2.85,1.38,10.64,10.64,0,0,1,2.47,3.54,10,10,0,0,1,.91,3.94m-4.61-11a9.24,9.24,0,0,0-6.24,2.25,7.67,7.67,0,0,0-2.69,6.11,8.82,8.82,0,0,0,.63,3.34,6.88,6.88,0,0,0,1.72,2.58,9.65,9.65,0,0,0,6.69,2.16,11.48,11.48,0,0,0,6.94-2,6.27,6.27,0,0,0,2-2.34,6.74,6.74,0,0,0,.71-3,8,8,0,0,0-.58-3,9,9,0,0,0-2.28-3.33,10.21,10.21,0,0,0-3.2-2,10,10,0,0,0-3.7-.72"/><path class="cls-1" d="M571.23,54.93c0-.43-.29-.79-.88-1.08a2,2,0,0,1-1-.77,7,7,0,0,1-.33-2.46V49a5.87,5.87,0,0,1,.58-3.15,2.58,2.58,0,0,1,2.2-1.21,2.35,2.35,0,0,1,2,1.36c.23.39.47.58.72.58a.66.66,0,0,0,.51-.19,2.22,2.22,0,0,0,.38-.74l1.36-4.08a2.38,2.38,0,0,0,.12-.65c0-.59-.64-.88-1.9-.88a5.62,5.62,0,0,0-3.27.92,16.74,16.74,0,0,0-2.61,2.64,9.28,9.28,0,0,1-.06-1.26c0-.91,0-1.46-.07-1.64-.07-.45-.3-.68-.71-.68a1.78,1.78,0,0,0-.86.24L562.82,43a.94.94,0,0,0-.58.82.92.92,0,0,0,.17.52.9.9,0,0,0,.6.4,2.65,2.65,0,0,1,.92.26,1.58,1.58,0,0,1,.37,1.21v2.44c0,1.28,0,2.27-.07,3a3.78,3.78,0,0,1-.4,1.71,2.47,2.47,0,0,1-.82.54q-.87.43-.87,1.08c0,.73.56,1.1,1.69,1.1h5.81c1.06,0,1.59-.37,1.59-1.1"/><path class="cls-1" d="M597.9,46.59l-3.28,1.48a1.68,1.68,0,0,1-.67.19c-.2,0-.4-.25-.61-.75a6.06,6.06,0,0,1-.4-2.3A3.15,3.15,0,0,1,593.6,43a2.36,2.36,0,0,1,1.83-.83,3,3,0,0,1,2.45,1.38,6.37,6.37,0,0,1,.69,1.2,2.72,2.72,0,0,1,.3,1c0,.25-.32.52-1,.81m5.23-.26,1.15-.58a.35.35,0,0,0,.21-.3,1.78,1.78,0,0,0-.23-.69,8.05,8.05,0,0,0-1.27-2,7.69,7.69,0,0,0-6.18-2.84,8.63,8.63,0,0,0-6,2.35,7.79,7.79,0,0,0-2.61,6,7.62,7.62,0,0,0,2.6,6,8.55,8.55,0,0,0,6,2.08,11.86,11.86,0,0,0,3.77-.61,11.62,11.62,0,0,0,3.51-1.8c1.12-.86,1.67-1.64,1.67-2.35a.92.92,0,0,0-.1-.44.71.71,0,0,0-.65-.4c-.28,0-.64.23-1.1.7a6.41,6.41,0,0,1-1.81,1.3,6.34,6.34,0,0,1-2.74.69,4.85,4.85,0,0,1-3.63-1.52,6.07,6.07,0,0,1-1.09-1.71l7.72-3.42Z"/><path class="cls-1" d="M616.47,48.33a1.65,1.65,0,0,1,.77.89A8.22,8.22,0,0,1,618,52a1.29,1.29,0,0,1-.81,1.17,4.4,4.4,0,0,1-2,.49A3.71,3.71,0,0,1,613,53a2.64,2.64,0,0,1-1.16-2.28,2.1,2.1,0,0,1,.54-1.49,3.56,3.56,0,0,1,2.77-1.11,3.22,3.22,0,0,1,1.31.22m-7.35-.9a4.89,4.89,0,0,0-2.51,4.15,4.18,4.18,0,0,0,1.61,3.35,6.42,6.42,0,0,0,4.26,1.38,12.16,12.16,0,0,0,6.58-2.06,5.12,5.12,0,0,0,1.2,1.32,5,5,0,0,0,2.85.74,4.73,4.73,0,0,0,2.4-.56,1.58,1.58,0,0,0,.91-1.43,1.66,1.66,0,0,0-.52-1.15,1.22,1.22,0,0,1-.86.41,1.41,1.41,0,0,1-1-.55,4.84,4.84,0,0,1-.92-1.71l-1.69-5.48a18.8,18.8,0,0,0-1.22-3,5.24,5.24,0,0,0-2.34-2.32,7.89,7.89,0,0,0-3.36-.72,9.28,9.28,0,0,0-2.59.4,8,8,0,0,0-2.28,1.07c-1.06.75-1.6,1.46-1.6,2.11a.77.77,0,0,0,.24.56.71.71,0,0,0,.53.24,1.24,1.24,0,0,0,.71-.22c.71-.48,1.15-.76,1.31-.84a5.55,5.55,0,0,1,2.25-.51,2.85,2.85,0,0,1,2.34,1.15,8.36,8.36,0,0,1,1.17,2.39c-.83-.05-1.47-.08-1.9-.08a9.9,9.9,0,0,0-5.52,1.38"/><path class="cls-1" d="M634.33,45.84a2.58,2.58,0,0,1,2.2-1.21,2.37,2.37,0,0,1,2,1.36c.23.39.47.58.71.58a.67.67,0,0,0,.52-.19,2.16,2.16,0,0,0,.37-.74l1.37-4.08a2.38,2.38,0,0,0,.12-.64c0-.6-.64-.89-1.9-.89a5.62,5.62,0,0,0-3.27.92,16.74,16.74,0,0,0-2.61,2.64,9.28,9.28,0,0,1-.06-1.26c0-.91,0-1.45-.07-1.64-.07-.45-.31-.68-.71-.68a1.78,1.78,0,0,0-.86.24L627.51,43a.94.94,0,0,0-.58.82.92.92,0,0,0,.17.52.88.88,0,0,0,.59.4,2.73,2.73,0,0,1,.93.26,1.62,1.62,0,0,1,.37,1.21v2.44c0,1.28,0,2.27-.07,3a3.74,3.74,0,0,1-.4,1.71,2.54,2.54,0,0,1-.83.54c-.58.29-.86.65-.86,1.08,0,.73.56,1.1,1.69,1.1h5.81c1.06,0,1.59-.37,1.59-1.1q0-.65-.87-1.08a2,2,0,0,1-1-.77,7,7,0,0,1-.33-2.46V49a6,6,0,0,1,.58-3.16"/><path class="cls-1" d="M654.64,52.1a2.31,2.31,0,0,0-1.08.45,3.76,3.76,0,0,1-2.06.74A1.46,1.46,0,0,1,650,52.08a33.48,33.48,0,0,1-.19-4.43V44.37A7.9,7.9,0,0,1,650,43a2.22,2.22,0,0,1,1.1-.14l2,0,1,0h.19a.55.55,0,0,0,.4-.11,1.36,1.36,0,0,0,.28-.56,5,5,0,0,0,.32-1.46.46.46,0,0,0-.33-.51,9.56,9.56,0,0,0-1,0H651.1a3.17,3.17,0,0,1-1.17-.11c-.16-.12-.25-.54-.25-1.24V35.33c0-.74-.23-1.12-.69-1.12a1.27,1.27,0,0,0-1,.67c-.26.31-.78,1-1.57,2l-2.08,2.45c-.15.16-.69.69-1.62,1.6a1.75,1.75,0,0,0-.68,1.19.73.73,0,0,0,.83.82h.77a6.73,6.73,0,0,1,.74,0c.29,0,.45.28.5.68a36.44,36.44,0,0,1,.16,4,29,29,0,0,1-.28,4.08,9.88,9.88,0,0,0-.1,1.29,2.61,2.61,0,0,0,1.3,2,6,6,0,0,0,3.68,1.09,7.82,7.82,0,0,0,4.51-1.27c1-.66,1.45-1.28,1.45-1.87a.9.9,0,0,0-.29-.67,1,1,0,0,0-.71-.27"/><path class="cls-1" d="M675.61,54.18a7.81,7.81,0,0,1-.78-.45,2.63,2.63,0,0,1-.87-1.09,14.93,14.93,0,0,1-.72-2.48A44.65,44.65,0,0,0,671,42.7a4.1,4.1,0,0,0-3.89-2.62,4.29,4.29,0,0,0-2.38.72A14.94,14.94,0,0,0,663,42.22V33.54c0-1-.24-1.46-.73-1.46a1.75,1.75,0,0,0-.84.34L657,35.19a1.24,1.24,0,0,0-.72,1c0,.42.28.72.84.91a1.32,1.32,0,0,1,1,1,16.47,16.47,0,0,1,.1,2.33v8.2c0,1.28,0,2.27-.07,3a3.78,3.78,0,0,1-.4,1.71,2.47,2.47,0,0,1-.82.54q-.87.43-.87,1.08c0,.73.56,1.1,1.69,1.1h5.72c1.13,0,1.7-.37,1.7-1.1,0-.43-.3-.79-.88-1.08l-.62-.33a1.6,1.6,0,0,1-.46-.77,21.89,21.89,0,0,1-.21-4.12V47a4.61,4.61,0,0,1,.6-2.59,1.82,1.82,0,0,1,1.58-.89,1.6,1.6,0,0,1,1.23.53,8.11,8.11,0,0,1,1,2.48c.35,1.17.66,2.38.94,3.64a15.22,15.22,0,0,1,.41,2.6,1.35,1.35,0,0,1-.84,1.14c-.62.33-.92.71-.92,1.13,0,.65.53,1,1.6,1H675c.77,0,1.15-.32,1.15-1a.94.94,0,0,0-.51-.89"/><path class="cls-1" d="M54.15,35.13c0,4-.91,5.74-3.32,6.73s-4.15,1.08-16.69,1.08c-16.2,0-17.44-1-17.44-14.29,0-9,.41-11.21,2.4-13s4.57-2.16,18.36-2.16c14.62,0,15.86.5,16.2,6.57H69.77V18.19c0-8.14-2.08-13-6.56-15.28C58.47.58,54,.16,33.31.16,17.77.16,12.46.91,7.48,3.82,1.66,7.14,0,12.37,0,27,0,43.44,1.58,49.25,7.06,52.74c4.48,2.91,9.64,3.65,25.58,3.65,11,0,17.69-.08,21.1-.41,8.64-.58,13.12-2.82,15.28-7.56,1.16-2.49,1.41-5.23,1.49-13.29Z"/><path class="cls-1" d="M98.25,40.86c-2.08-1.74-2.74-4.73-2.74-12.87,0-8,.66-10.71,2.9-12.46,2.16-1.58,5.57-2,17.94-2,20.77,0,21,.16,21,14.11,0,7.4-.42,10.22-2,12.22-1.91,2.66-4.9,3.15-19.43,3.15-12.71,0-15.45-.33-17.69-2.16M132,56.31c8.05-.33,12.7-1.66,16-4.48,4.73-3.91,6.14-9.3,6.14-22.68a114.91,114.91,0,0,0-.49-13.45C152.48,6.81,148.33,2.41,139.77.83,135.87.17,131,0,115,0,100.4,0,95.34.33,90.69,1.66c-6.23,1.83-9.47,5-11,10.88-1,3.74-1.16,6.06-1.16,15.37,0,12.12.5,16.19,2.66,20.26s5.64,6.4,11.79,7.48c3.32.66,10,.91,23.26.91,5.39,0,12.79-.08,15.78-.25"/><polygon class="cls-1" points="184.53 55.98 201.39 55.98 201.39 14.29 226.06 14.29 226.06 0.58 159.86 0.58 159.86 14.29 184.53 14.29 184.53 55.98"/><polygon class="cls-1" points="254.87 55.98 271.73 55.98 271.73 14.29 296.4 14.29 296.4 0.58 230.2 0.58 230.2 14.29 254.87 14.29 254.87 55.98"/><path class="cls-1" d="M330.28,12.46l12,22.09H318.48ZM307.1,56l5.32-9.88h35.71L353.62,56h18.43L341.74.58H319.15L288,56Z"/><path class="cls-1" d="M387.74,55.4c3.49.75,8.39,1,21.1,1,16.36,0,21.43-.08,23.17-.24,7-.75,10.88-3.24,12.79-8.39,1.08-3,1.41-6.23,1.41-15.37V24.75H408.42v10.3h21.35v1.33a12.44,12.44,0,0,1-.25,3.07C428.11,43.11,426,43.69,415,43.6c-10.38,0-10.38,0-12.21-.08-4.4-.08-6.72-.58-8.63-1.83-2.33-1.57-3.08-4.57-3.08-12a99.67,99.67,0,0,1,.42-10.13c.41-3.49,1.74-5.07,4.82-5.82,2-.5,2-.5,10-.5l6.15-.08,6,.08h4.24c5.06.17,7,1.83,7,6.15h16.53C446.3,7.72,443.55,3.4,435,1.24,431.51.41,426.69.17,411.58.17c-10.55,0-17.28.24-21.1.74-7.14,1-11.05,3.24-13.54,7.56-2.16,3.9-2.82,8.64-2.82,20.52,0,10.3.41,14.2,2.08,17.94,1.91,4.56,5.48,7.14,11.54,8.47"/><polygon class="cls-1" points="517.47 43.44 472.12 43.44 472.12 33.64 514.31 33.64 514.31 22.67 472.12 22.67 472.12 13.12 516.88 13.12 516.88 0.58 455.5 0.58 455.5 55.98 517.47 55.98 517.47 43.44"/><rect class="cls-1" x="0.58" y="121.92" width="62.28" height="5.48"/><rect class="cls-1" x="70.09" y="72.06" width="16.86" height="55.4"/><polygon class="cls-1" points="157.3 72.06 157.71 114.17 124.16 72.06 97.33 72.06 97.33 127.46 113.53 127.46 113.11 85.77 146.17 127.46 173.24 127.46 173.24 72.06 157.3 72.06"/><path class="cls-1" d="M235.52,113.59c-2,.67-2.32.67-6.89.67H200.39V85.85H229c9.72,0,11.71,2.41,11.71,14,0,9.55-1.07,12.46-5.15,13.7m16.86-36.38c-3.82-3.82-9.3-5.15-21-5.15H183.53v55.4h50.08c5.9,0,8.39-.16,11.55-.83,6.06-1.16,10.71-6.31,11.63-13a104.78,104.78,0,0,0,.83-13.87c0-2.65-.17-6.47-.33-9-.59-7.06-1.83-10.55-4.91-13.54"/><path class="cls-1" d="M337.84,72.06H321V97.48c0,6.15,0,6.15-.08,7.39-.09,4.24-.92,6.65-2.58,7.89-2.08,1.58-5.56,1.91-18.19,1.91s-15.36-1.24-16.19-7.47c-.25-1.5-.25-1.67-.25-7.73V72.06H266.83v29.82c-.25,16.45,2.41,21.68,12.45,24.75,4.07,1.08,7.15,1.25,22.76,1.33l6.31-.08c3.33,0,4.82,0,7.4-.08,7.22-.09,12.21-1.42,16.19-4.49,4.9-4.4,6.06-8.47,5.9-22.18Z"/><path class="cls-1" d="M401,93.74c-2.82-.16-10.3-.41-11.79-.41h-15.7c-5.48-.09-5.81-.17-6.81-.42a4.16,4.16,0,0,1-3.57-4.4c0-3.16,1.49-4.32,6-4.65,2.66-.17,9.88-.33,15.28-.33,10.88,0,12.54.66,12.54,5.48h16.45c0-8.31-1.25-11.71-5.07-14.29-4-2.57-8.47-3.07-27.91-3.07-12.12,0-18.6.41-23.09,1.58-8,1.91-10.79,6.14-10.79,16.11,0,7.56,1.82,12,5.81,14,3.57,1.82,7.81,2.4,18,2.4h15.28c8.73.09,8.73.09,10.55.67a4.39,4.39,0,0,1,2.83,4.48c0,4.57-2.33,5.15-21.85,5.15-5.31,0-10.05-.33-11.29-.83-2-.75-2.41-1.66-2.58-5.48H346.72c-.09,1.16-.09,2.24-.09,2.74,0,6.56,1.75,10.8,5.15,12.46,4.9,2.49,9.14,2.91,28.32,2.91,12,0,20.27-.5,24.42-1.41,8.14-1.75,11.13-6.23,11.13-16.45,0-11.13-4.15-15.78-14.7-16.28"/><polygon class="cls-1" points="420.3 72.06 420.3 85.77 444.96 85.77 444.96 127.46 461.82 127.46 461.82 85.77 486.49 85.77 486.49 72.06 420.3 72.06"/><path class="cls-1" d="M536.23,100H509.9V85.69h26.91c5.07,0,6.48.24,7.73,1.57,1.08,1.17,1.41,2.66,1.41,6.23,0,5.48-1.58,6.48-9.72,6.48m26.66-9.63c0-7.48-1.49-12.21-4.73-14.79s-7.48-3.49-17.28-3.49H493.13v55.4H509.9V113.51h25.83c7.56-.17,9.22,1.08,9.31,7.06v6.89h17.1v-8.72c.17-8.39-1.91-11.29-8.8-12.46,7.06-1.57,9.55-5.64,9.55-15.94"/><polygon class="cls-1" points="624.09 72.06 605.57 94.99 586.89 72.06 565.37 72.06 597.02 108.27 597.02 127.46 613.96 127.46 613.96 108.27 645.19 72.06 624.09 72.06"/></g></g></svg>