<?xml version="1.0" encoding="utf-8"?>
<!-- Generator: Adobe Illustrator 25.1.0, SVG Export Plug-In . SVG Version: 6.00 Build 0)  -->
<svg version="1.1" id="Layer_1" xmlns="http://www.w3.org/2000/svg" xmlns:xlink="http://www.w3.org/1999/xlink" x="0px" y="0px"
	 viewBox="0 0 379.2 127.3" style="enable-background:new 0 0 379.2 127.3;" xml:space="preserve">
<g>
	<path d="M237.3,23.2c1.8,1.3,4,2,6.3,2c2.3,0,4.5-0.8,6.1-2.4c1-1,1.6-1.8,1.6-2.4c0-0.1,0-0.3-0.1-0.4c-0.1-0.3-0.4-0.4-0.6-0.4
		c-0.3,0-0.7,0.2-1.1,0.7c-1.1,1.4-2.7,2.2-4.5,2.3c-1.2,0-2.4-0.5-3.3-1.3c-1.3-1.4-1.9-3.2-1.8-5.1c-0.1-1.5,0.3-2.9,1.1-4.1
		c0.6-0.8,1.5-1.3,2.5-1.3c0.9,0,1.7,0.4,2.2,1.1c0.6,0.7,1,1.5,1.2,2.3c0.1,0.4,0.2,0.8,0.4,1.1c0.1,0.3,0.3,0.5,0.6,0.5
		c0.3,0,0.6-0.2,0.8-0.7l1.6-3.2c0.1-0.2,0.2-0.4,0.2-0.7c0-0.3-0.4-0.7-1.1-1.1c-1.7-0.8-3.5-1.2-5.4-1.2c-2.2-0.1-4.3,0.6-6.1,1.9
		c-2.2,1.5-3.4,4-3.4,6.6C234.4,19.7,235.5,21.9,237.3,23.2"/>
	<path d="M253.5,20.5c0,0.6-0.1,1.2-0.4,1.7c-0.2,0.2-0.5,0.4-0.8,0.5c-0.6,0.3-0.9,0.6-0.9,1.1c0,0.7,0.6,1.1,1.7,1.1h5.6
		c1.1,0,1.7-0.4,1.7-1.1c0-0.4-0.3-0.8-0.9-1.1c-0.2-0.1-0.4-0.2-0.6-0.3c-0.2-0.2-0.4-0.5-0.4-0.8c-0.2-1.3-0.3-2.7-0.2-4.1V3.1
		c0-1.1-0.2-1.6-0.7-1.6c-0.2,0-0.5,0.1-0.7,0.2l-4.2,2.3c-0.3,0.1-0.5,0.3-0.8,0.5c-0.3,0.2-0.4,0.5-0.4,0.8c0,0.4,0.2,0.7,0.6,0.8
		c0.3,0.1,0.5,0.2,0.7,0.3c0.2,0.1,0.4,0.2,0.5,0.4c0.2,0.9,0.3,1.8,0.3,2.7v8C253.6,18.9,253.6,19.8,253.5,20.5"/>
	<path d="M266.5,12c0.4-0.6,1.1-1,1.9-1c1.1,0.1,2.1,0.6,2.8,1.4c1,1,1.9,2.2,2.4,3.5c0.6,1.2,0.9,2.5,0.9,3.9
		c0,0.7-0.2,1.3-0.6,1.9c-0.5,0.7-1.3,1.1-2.2,1.1c-0.8,0-1.7-0.3-2.3-0.9c-1.2-1-2.2-2.4-2.8-3.9c-0.5-1.2-0.8-2.4-0.8-3.7
		C265.8,13.4,266.1,12.6,266.5,12 M263.6,23c1.8,1.5,4.2,2.3,6.6,2.1c2.5,0.1,4.9-0.6,6.9-2c0.8-0.6,1.5-1.4,2-2.3
		c0.5-0.9,0.7-2,0.7-3c0-1-0.2-2-0.6-3c-0.5-1.2-1.3-2.4-2.4-3.2c-0.9-0.9-2-1.5-3.2-2c-1.2-0.5-2.4-0.7-3.7-0.7
		c-2.3,0-4.5,0.7-6.2,2.2c-1.8,1.5-2.7,3.7-2.7,6c0,1.1,0.2,2.2,0.6,3.3C262.1,21.4,262.7,22.3,263.6,23"/>
	<path d="M280.4,12h0.8c0.2,0,0.5,0,0.7,0c0.3,0,0.5,0.3,0.5,0.7c0.1,1.3,0.2,2.6,0.2,3.9c0,1.3-0.1,2.7-0.3,4
		c-0.1,0.4-0.1,0.8-0.1,1.3c0.1,0.8,0.6,1.6,1.3,2c1.1,0.8,2.3,1.1,3.6,1.1c1.6,0,3.1-0.4,4.4-1.3c1-0.7,1.4-1.3,1.4-1.8
		c0-0.2-0.1-0.5-0.3-0.7c-0.2-0.2-0.4-0.3-0.7-0.3c-0.4,0.1-0.8,0.2-1.1,0.4c-0.6,0.4-1.3,0.7-2,0.7c-0.7,0-1.3-0.5-1.4-1.2
		c-0.2-1.4-0.2-2.9-0.2-4.4v-3.2c0-0.5,0-0.9,0.1-1.4c0.1-0.1,0.4-0.1,1.1-0.1h2h1.2c0.1,0,0.3,0,0.4-0.1c0.1-0.2,0.2-0.3,0.3-0.6
		c0.2-0.5,0.3-1,0.3-1.4c0-0.3-0.1-0.4-0.3-0.5c-0.3,0-0.7,0-1,0h-2.7c-0.4,0-0.8,0-1.2-0.1c-0.2-0.1-0.2-0.5-0.2-1.2V4.5
		c0-0.7-0.2-1.1-0.7-1.1c-0.4,0-0.8,0.3-1,0.7c-0.3,0.3-0.8,1-1.6,2l-2,2.4c-0.1,0.2-0.7,0.7-1.6,1.6c-0.4,0.3-0.6,0.7-0.7,1.2
		c-0.1,0.4,0.2,0.8,0.6,0.8C280.3,12,280.4,12,280.4,12"/>
	<path d="M295,24.9h5.6c1.1,0,1.7-0.4,1.7-1.1c0-0.4-0.3-0.8-0.9-1.1c-0.2-0.1-0.4-0.2-0.6-0.3c-0.2-0.2-0.4-0.5-0.4-0.8
		c-0.2-1.3-0.3-2.7-0.2-4.1V16c-0.1-0.9,0.1-1.8,0.6-2.5c0.3-0.5,0.9-0.9,1.6-0.9c0.5,0,0.9,0.2,1.2,0.5c0.5,0.8,0.8,1.6,1,2.4
		c0.3,1.2,0.7,2.4,0.9,3.6c0.2,0.8,0.4,1.7,0.4,2.6c0,0.5-0.4,0.9-0.8,1.1c-0.6,0.3-0.9,0.7-0.9,1.1c0,0.6,0.5,1,1.6,1h6.3
		c0.7,0,1.1-0.3,1.1-1c0-0.4-0.2-0.7-0.5-0.9c-0.3-0.1-0.5-0.3-0.8-0.4c-0.4-0.3-0.7-0.6-0.9-1.1c-0.3-0.8-0.5-1.6-0.7-2.4
		c-0.5-2.5-1.3-5-2.2-7.4c-0.6-1.6-2.2-2.6-3.8-2.6c-0.8,0-1.6,0.2-2.3,0.7c-0.6,0.4-1.2,0.9-1.7,1.4V2.7c0-1-0.2-1.4-0.7-1.4
		c-0.3,0-0.6,0.1-0.8,0.3l-4.3,2.7c-0.4,0.2-0.7,0.6-0.7,1c0,0.4,0.3,0.7,0.8,0.9c0.5,0.1,0.9,0.5,1,1c0.1,0.8,0.1,1.5,0.1,2.3v8.1
		c0,1.3,0,2.2-0.1,3c0,0.6-0.1,1.2-0.4,1.7c-0.2,0.2-0.5,0.4-0.8,0.5c-0.6,0.3-0.9,0.6-0.9,1.1C293.3,24.5,293.9,24.9,295,24.9"/>
	<path d="M318.1,12.1c0.4-0.5,1.1-0.8,1.8-0.8c1,0,1.9,0.5,2.4,1.4c0.3,0.4,0.5,0.8,0.7,1.2c0.2,0.3,0.3,0.6,0.3,1
		c0,0.2-0.3,0.5-1,0.8l-3.2,1.5c-0.2,0.1-0.4,0.2-0.7,0.2c-0.2,0-0.4-0.2-0.6-0.7c-0.3-0.7-0.4-1.5-0.4-2.3
		C317.3,13.5,317.6,12.7,318.1,12.1 M321.2,25.2c2.6,0,5.1-0.8,7.2-2.4c1.1-0.8,1.7-1.6,1.7-2.3c0-0.2,0-0.3-0.1-0.4
		c-0.1-0.2-0.4-0.4-0.6-0.4c-0.3,0-0.6,0.2-1.1,0.7c-1.2,1.2-2.8,1.9-4.5,2c-1.4,0-2.7-0.5-3.6-1.5c-0.5-0.5-0.8-1.1-1.1-1.7
		l7.6-3.4l0.8-0.4c0.6-0.3,1-0.5,1.1-0.6c0.1-0.1,0.2-0.2,0.2-0.3c0-0.2-0.1-0.5-0.2-0.7c-0.3-0.7-0.7-1.4-1.3-2
		c-1.5-1.9-3.8-2.9-6.2-2.8c-2.2,0-4.3,0.8-5.9,2.3c-1.7,1.5-2.6,3.7-2.6,5.9c-0.1,2.3,0.9,4.4,2.6,5.9
		C316.9,24.5,319,25.3,321.2,25.2"/>
	<path d="M333.1,24.9c0.3,0.7,0.6,1,1,1c0.4,0,0.7-0.3,0.9-0.6c0.2-0.3,0.5-0.5,0.8-0.5c0.4,0.1,0.9,0.1,1.3,0.2
		c1.5,0.4,3,0.6,4.5,0.7c1.4,0,2.9-0.5,3.9-1.4c1-0.9,1.6-2.2,1.6-3.5c0-0.9-0.2-1.7-0.7-2.5c-0.6-0.9-1.5-1.6-2.5-2.1
		c-0.7-0.3-2-0.8-3.7-1.4c-0.9-0.3-1.9-0.7-2.7-1.1c-0.4-0.2-0.7-0.6-0.7-1.1c0-0.7,0.5-1.1,1.6-1.1c1.3,0,2.6,0.4,3.8,1
		c1,0.5,1.9,1.2,2.8,1.9c0.2,0.2,0.5,0.3,0.8,0.4c0.4,0,0.6-0.2,0.6-0.5c0-0.3-0.1-0.5-0.3-0.7l-2-3.7c-0.3-0.5-0.6-0.8-0.9-0.8
		s-0.5,0.2-0.9,0.5c-0.2,0.2-0.5,0.4-0.9,0.4c-0.2,0-0.4,0-0.5-0.1c-1.4-0.5-2.9-0.7-4.5-0.8c-1.2-0.1-2.4,0.3-3.4,1
		c-1,0.8-1.5,2-1.5,3.3c0,1.5,0.9,2.9,2.2,3.7c1,0.5,1.9,1,3,1.4l3.8,1.6c0.8,0.4,1.2,0.8,1.2,1.4c0,0.4-0.2,0.9-0.6,1.1
		c-0.5,0.3-1.1,0.4-1.7,0.4c-0.8,0-1.5-0.1-2.2-0.3c-0.8-0.2-1.5-0.5-2.2-0.8c-0.5-0.3-0.9-0.6-1.4-0.9c-0.5-0.4-0.9-0.7-1.3-1.2
		c-0.4-0.4-0.8-0.7-1-0.7c-0.3,0-0.6,0.2-0.6,0.6c0,0.3,0.1,0.6,0.2,0.8L333.1,24.9z"/>
	<path d="M234.6,43.3c0.1,0,0.4,0,1,0.1h0.9c0,0.1,0,0.4,0,0.9c0,0.1,0,0.4,0,1.1c0,0.3,0,0.7,0,1v2.3c0,1.3,0,2.2-0.1,3
		c0,0.6-0.1,1.2-0.4,1.7c-0.2,0.2-0.5,0.4-0.8,0.5c-0.6,0.3-0.9,0.6-0.9,1.1c0,0.7,0.6,1.1,1.7,1.1h5.7c1.1,0,1.6-0.3,1.6-1
		c0-0.5-0.3-1-0.8-1.1c-0.2-0.1-0.4-0.2-0.6-0.3c-0.2-0.2-0.4-0.5-0.4-0.8c-0.2-1.3-0.3-2.7-0.2-4.1v-5.2h0.3c0.6,0,1.1-0.1,1.6-0.1
		c0.2,0,0.4,0,0.5-0.1c0.1-0.1,0.2-0.2,0.2-0.4c0.2-0.5,0.4-1.1,0.3-1.7c0-0.3-0.2-0.5-0.6-0.5h-0.4H243h-1.7c-0.4-1.1-1.1-2-2-2.8
		c-0.8-0.8-1.2-1.4-1.2-1.8c0-0.3,0.1-0.6,0.4-0.9c0.2-0.2,0.5-0.4,0.9-0.3c0.2,0,0.5,0.1,0.7,0.2c0.2,0.1,0.4,0.4,0.3,0.6
		c0,0.3-0.3,0.6-0.8,0.8c0.1,0.2,0.3,0.5,0.5,0.6c0.6,0.5,1.3,0.8,2.1,0.7c0.6,0,1.1-0.2,1.6-0.5c0.7-0.4,1.1-1.2,1.1-2
		c0-1-0.5-1.8-1.4-2.3c-1-0.7-2.2-1-3.4-1c-1.4,0-2.7,0.3-3.8,1.1c-1.1,0.7-1.8,1.9-1.7,3.2c0,1,0.4,1.9,1,2.7
		c0.6,0.7,0.9,1.2,1.1,1.5h-1.4c-0.3,0-0.5,0-0.8,0c-0.2,0-0.3,0.2-0.3,0.5c0,0.4,0.1,0.9,0.1,1.3C234.2,42.9,234.4,43.2,234.6,43.3
		"/>
	<path d="M258.2,50.8c0,0.7-0.2,1.3-0.6,1.9c-0.5,0.7-1.3,1.1-2.2,1.1c-0.8,0-1.7-0.3-2.3-0.9c-2.2-1.9-3.5-4.6-3.6-7.5
		c0-0.8,0.2-1.6,0.7-2.3c0.4-0.6,1.1-1,1.9-1c1.1,0.1,2.1,0.6,2.8,1.4c1,1,1.9,2.2,2.4,3.5C257.9,48.1,258.2,49.4,258.2,50.8
		 M253.7,39.9c-2.3,0-4.4,0.7-6.2,2.2c-1.8,1.5-2.7,3.7-2.7,6c0,1.1,0.2,2.2,0.6,3.3c0.4,1,0.9,1.8,1.7,2.5c1.9,1.5,4.2,2.3,6.6,2.1
		c2.4,0.1,4.8-0.6,6.8-2c0.8-0.6,1.5-1.4,2-2.3c0.5-0.9,0.7-1.9,0.7-3c0-1-0.2-2-0.6-3c-0.5-1.3-1.3-2.4-2.2-3.3
		c-0.9-0.8-2-1.5-3.2-2C256.2,40.2,255,40,253.7,39.9"/>
	<path d="M273.1,54.9c0-0.4-0.3-0.8-0.9-1.1c-0.4-0.1-0.7-0.4-1-0.8c-0.3-0.8-0.4-1.6-0.3-2.4V49c-0.1-1.1,0.1-2.1,0.6-3.1
		c0.5-0.7,1.3-1.2,2.2-1.2c0.9,0,1.6,0.6,2,1.3c0.2,0.4,0.5,0.6,0.7,0.6c0.2,0,0.4-0.1,0.5-0.2c0.2-0.2,0.3-0.5,0.4-0.7l1.3-4
		c0.1-0.2,0.1-0.4,0.1-0.6c0-0.6-0.6-0.9-1.9-0.9c-1.1,0-2.3,0.3-3.2,0.9c-1,0.8-1.8,1.6-2.6,2.6c0-0.4-0.1-0.8-0.1-1.2
		c0-0.9,0-1.4-0.1-1.6c-0.1-0.4-0.3-0.7-0.7-0.7c-0.3,0-0.6,0.1-0.8,0.2l-4.5,2.7c-0.3,0.1-0.6,0.5-0.6,0.8c0,0.2,0.1,0.4,0.2,0.5
		c0.1,0.2,0.3,0.4,0.6,0.4c0.3,0,0.6,0.1,0.9,0.3c0.3,0.3,0.4,0.8,0.4,1.2v2.4c0,1.3,0,2.2-0.1,3c0,0.6-0.1,1.2-0.4,1.7
		c-0.2,0.2-0.5,0.4-0.8,0.5c-0.6,0.3-0.9,0.6-0.9,1.1c0,0.7,0.6,1.1,1.7,1.1h5.7C272.6,56,273.1,55.7,273.1,54.9"/>
	<path d="M299.4,46.7l-3.2,1.5c-0.2,0.1-0.4,0.2-0.7,0.2c-0.2,0-0.4-0.2-0.6-0.7c-0.3-0.7-0.4-1.5-0.4-2.3c-0.1-0.8,0.2-1.6,0.7-2.2
		c0.4-0.5,1.1-0.8,1.8-0.8c1,0,1.9,0.5,2.4,1.4c0.3,0.4,0.5,0.8,0.7,1.2c0.2,0.3,0.3,0.6,0.3,1C300.4,46.1,300.1,46.4,299.4,46.7
		 M304.6,46.4l1.1-0.6c0.1-0.1,0.2-0.2,0.2-0.3c0-0.2-0.1-0.5-0.2-0.7c-0.3-0.7-0.7-1.4-1.3-2c-1.5-1.8-3.7-2.9-6.1-2.8
		c-2.2,0-4.3,0.8-5.9,2.3c-1.7,1.5-2.6,3.7-2.6,5.9c-0.1,2.3,0.9,4.4,2.6,5.9c1.6,1.4,3.8,2.2,5.9,2.1c1.3,0,2.5-0.2,3.7-0.6
		c1.2-0.4,2.4-1,3.5-1.8c1.1-0.8,1.6-1.6,1.6-2.3c0-0.2,0-0.3-0.1-0.4c-0.1-0.2-0.4-0.4-0.6-0.4c-0.3,0-0.6,0.2-1.1,0.7
		c-0.5,0.5-1.1,1-1.8,1.3c-0.8,0.4-1.8,0.7-2.7,0.7c-1.4,0-2.7-0.5-3.6-1.5c-0.5-0.5-0.8-1.1-1.1-1.7l7.6-3.4L304.6,46.4z"/>
	<path d="M317.7,48.4c0.4,0.2,0.6,0.5,0.8,0.9c0.4,0.9,0.7,1.8,0.7,2.7c0,0.5-0.3,1-0.8,1.2c-0.6,0.3-1.3,0.5-2,0.5
		c-0.8,0-1.5-0.2-2.2-0.7c-0.7-0.5-1.2-1.4-1.1-2.2c0-0.5,0.2-1.1,0.5-1.5c0.7-0.7,1.7-1.1,2.7-1.1
		C316.9,48.2,317.3,48.2,317.7,48.4 M310.5,47.5c-1.5,0.8-2.4,2.4-2.5,4.1c0,1.3,0.6,2.5,1.6,3.3c1.2,0.9,2.7,1.4,4.2,1.4
		c2.3,0,4.6-0.7,6.5-2c0.3,0.5,0.7,0.9,1.2,1.3c0.8,0.5,1.8,0.8,2.8,0.7c0.8,0,1.6-0.2,2.4-0.6c0.5-0.3,0.9-0.8,0.9-1.4
		c0-0.4-0.2-0.8-0.5-1.1c-0.2,0.2-0.5,0.4-0.8,0.4c-0.4,0-0.7-0.2-1-0.5c-0.4-0.5-0.7-1.1-0.9-1.7l-1.7-5.4c-0.3-1-0.7-2-1.2-3
		c-0.5-1-1.3-1.8-2.3-2.3c-1-0.5-2.2-0.7-3.3-0.7c-0.9,0-1.7,0.1-2.6,0.4c-0.8,0.2-1.6,0.6-2.2,1.1c-1,0.7-1.6,1.4-1.6,2.1
		c0,0.2,0.1,0.4,0.2,0.6c0.1,0.1,0.3,0.2,0.5,0.2c0.3,0,0.5-0.1,0.7-0.2c0.7-0.5,1.1-0.7,1.3-0.8c0.7-0.3,1.5-0.5,2.2-0.5
		c0.9,0,1.8,0.4,2.3,1.1c0.5,0.7,0.9,1.5,1.2,2.4c-0.8,0-1.4-0.1-1.9-0.1C314.1,46.1,312.2,46.6,310.5,47.5"/>
	<path d="M335.4,45.9c0.5-0.7,1.3-1.2,2.2-1.2c0.9,0.1,1.6,0.6,2,1.3c0.2,0.4,0.5,0.6,0.7,0.6c0.2,0,0.4-0.1,0.5-0.2
		c0.2-0.2,0.3-0.5,0.4-0.7l1.4-4c0.1-0.2,0.1-0.4,0.1-0.6c0-0.6-0.6-0.9-1.9-0.9c-1.1,0-2.3,0.3-3.2,0.9c-1,0.8-1.8,1.6-2.6,2.6
		c0-0.4-0.1-0.8-0.1-1.2c0-0.9,0-1.4-0.1-1.6c-0.1-0.4-0.3-0.7-0.7-0.7c-0.3,0-0.6,0.1-0.8,0.2l-4.6,2.7c-0.3,0.1-0.6,0.5-0.6,0.8
		c0,0.2,0.1,0.4,0.2,0.5c0.1,0.2,0.3,0.4,0.6,0.4c0.3,0,0.6,0.1,0.9,0.3c0.3,0.3,0.4,0.8,0.4,1.2v2.4c0,1.3,0,2.2-0.1,3
		c0,0.6-0.1,1.2-0.4,1.7c-0.2,0.2-0.5,0.4-0.8,0.5c-0.6,0.3-0.8,0.6-0.8,1.1c0,0.7,0.6,1.1,1.7,1.1h5.7c1,0,1.6-0.4,1.6-1.1
		c0-0.4-0.3-0.8-0.9-1.1c-0.4-0.1-0.7-0.4-1-0.8c-0.3-0.8-0.4-1.6-0.3-2.4V49C334.7,48,334.9,46.9,335.4,45.9"/>
	<path d="M355.4,52.1c-0.4,0.1-0.8,0.2-1.1,0.4c-0.6,0.4-1.3,0.7-2,0.7c-0.7,0-1.4-0.5-1.5-1.2c-0.2-1.5-0.2-2.9-0.2-4.4v-3.2
		c0-0.5,0.1-0.9,0.2-1.4c0.3-0.1,0.7-0.2,1.1-0.1h2h1h0.2c0.1,0,0.3,0,0.4-0.1c0.1-0.2,0.2-0.3,0.3-0.6c0.2-0.5,0.3-0.9,0.3-1.4
		c0-0.2-0.1-0.4-0.3-0.5c-0.3,0-0.7,0-1,0h-2.8c-0.4,0-0.8,0-1.2-0.1c-0.2-0.1-0.2-0.5-0.2-1.2v-3.5c0-0.7-0.2-1.1-0.7-1.1
		c-0.4,0-0.8,0.3-1,0.7c-0.3,0.3-0.8,1-1.5,2l-2.1,2.4c-0.1,0.2-0.7,0.7-1.6,1.6c-0.4,0.3-0.6,0.7-0.7,1.2c-0.1,0.4,0.2,0.8,0.6,0.8
		c0.1,0,0.1,0,0.2,0h0.8c0.2,0,0.5,0,0.7,0c0.3,0,0.4,0.3,0.5,0.7c0.1,1.3,0.2,2.6,0.2,3.9c0,1.3-0.1,2.7-0.3,4
		c-0.1,0.4-0.1,0.8-0.1,1.3c0.1,0.8,0.6,1.6,1.3,2c1.1,0.7,2.3,1.1,3.6,1.1c1.6,0,3.1-0.4,4.4-1.3c1-0.7,1.4-1.3,1.4-1.8
		c0-0.3-0.1-0.5-0.3-0.7C355.9,52.1,355.6,52,355.4,52.1"/>
	<path d="M376.1,54.2c-0.3-0.1-0.5-0.3-0.8-0.4c-0.4-0.3-0.7-0.6-0.9-1.1c-0.3-0.8-0.5-1.6-0.7-2.4c-0.5-2.5-1.3-5-2.2-7.4
		c-0.6-1.6-2.1-2.6-3.8-2.6c-0.8,0-1.7,0.2-2.3,0.7c-0.6,0.4-1.2,0.9-1.7,1.4v-8.6c0-1-0.2-1.4-0.7-1.4c-0.3,0-0.6,0.2-0.8,0.3
		l-4.4,2.7c-0.4,0.2-0.7,0.6-0.7,1c0,0.4,0.3,0.7,0.8,0.9c0.5,0.1,0.9,0.5,1,1c0.1,0.8,0.1,1.5,0.1,2.3v8.1c0,1.3,0,2.2-0.1,3
		c0,0.6-0.1,1.2-0.4,1.7c-0.2,0.2-0.5,0.4-0.8,0.5c-0.6,0.3-0.9,0.6-0.9,1.1c0,0.7,0.6,1.1,1.7,1.1h5.6c1.1,0,1.7-0.4,1.7-1.1
		c0-0.4-0.3-0.8-0.9-1.1l-0.6-0.3c-0.2-0.2-0.4-0.5-0.5-0.8c-0.2-1.3-0.3-2.7-0.2-4.1v-1.6c-0.1-0.9,0.1-1.8,0.6-2.6
		c0.3-0.5,0.9-0.9,1.6-0.9c0.5,0,0.9,0.2,1.2,0.5c0.5,0.8,0.8,1.6,1,2.4c0.3,1.2,0.7,2.3,0.9,3.6c0.2,0.8,0.3,1.7,0.4,2.6
		c0,0.5-0.4,0.9-0.8,1.1c-0.6,0.3-0.9,0.7-0.9,1.1c0,0.6,0.5,1,1.6,1h6.3c0.8,0,1.1-0.3,1.1-1C376.6,54.6,376.4,54.3,376.1,54.2"/>
</g>
<path d="M56,35.4c0,3.9-0.9,5.7-3.3,6.6s-4.1,1.1-16.5,1.1c-16,0-17.2-1-17.2-14.1c0-8.9,0.4-11.1,2.4-12.8c2-1.8,4.5-2.1,18.1-2.1
	c14.4,0,15.6,0.5,16,6.5h15.9v-1.8c0-8-2.1-12.8-6.5-15.1c-4.7-2.3-9.1-2.7-29.5-2.7C20.2,0.9,14.9,1.6,10,4.5
	c-5.7,3.3-7.4,8.4-7.4,22.9c0,16.2,1.6,21.9,7,25.4c4.4,2.9,9.5,3.6,25.2,3.6c10.8,0,17.4-0.1,20.8-0.4c8.5-0.6,12.9-2.8,15.1-7.5
	c1.1-2.5,1.4-5.2,1.5-13.1H56z"/>
<polygon points="101,55.9 117.7,55.9 117.7,14.8 142,14.8 142,1.3 76.7,1.3 76.7,14.8 101,14.8 "/>
<path d="M161.5,55.4c3.4,0.7,8.3,1,20.8,1c16.1,0,21.1-0.1,22.8-0.2c6.9-0.7,10.7-3.2,12.6-8.3c1.1-3,1.4-6.1,1.4-15.2v-7.5h-37.3
	v10.2h21.1v1.3c0,1,0,2-0.2,3c-1.4,3.6-3.5,4.2-14.3,4.1c-10.2,0-10.2,0-12-0.1c-4.3-0.1-6.6-0.6-8.5-1.8c-2.3-1.5-3-4.5-3-11.8
	c0-3.3,0.1-6.7,0.4-10c0.4-3.4,1.7-5,4.8-5.7c2-0.5,2-0.5,9.9-0.5l6.1-0.1l5.9,0.1h4.2c5,0.2,6.9,1.8,6.9,6.1h16.3
	c0.1-11.5-2.7-15.8-11.1-17.9c-3.4-0.8-8.2-1.1-23.1-1.1c-10.4,0-17,0.2-20.8,0.7c-7,1-10.9,3.2-13.4,7.5c-2.1,3.8-2.8,8.5-2.8,20.2
	c0,10.2,0.4,14,2.1,17.7C152,51.5,155.5,54,161.5,55.4"/>
<rect x="3.2" y="120.9" width="61.4" height="5.4"/>
<rect x="71.8" y="71.8" width="16.6" height="54.6"/>
<polygon points="157.8,71.8 158.2,113.3 125.1,71.8 98.6,71.8 98.6,126.4 114.6,126.4 114.2,85.3 146.8,126.4 173.5,126.4 
	173.5,71.8 "/>
<path d="M234.9,112.7c-2,0.7-2.3,0.7-6.8,0.7h-27.8v-28h28.2c9.6,0,11.5,2.4,11.5,13.8C240,108.6,238.9,111.5,234.9,112.7
	 M251.5,76.8c-3.8-3.8-9.2-5.1-20.7-5.1h-47.2v54.6H233c5.8,0,8.3-0.2,11.4-0.8c6-1.1,10.6-6.2,11.5-12.8c0.6-4.5,0.8-9.1,0.8-13.7
	c0-2.6-0.2-6.4-0.3-8.9C255.8,83.2,254.5,79.8,251.5,76.8"/>
</svg>
